<?xml version="1.0" standalone="no"?>
<!DOCTYPE svg PUBLIC "-//W3C//DTD SVG 1.1//EN" "http://www.w3.org/Graphics/SVG/1.1/DTD/svg11.dtd" >
<svg xmlns="http://www.w3.org/2000/svg">
<metadata></metadata>
<defs>
<font id="le_havre_lrsprimary" horiz-adv-x="1865" >
<font-face units-per-em="2048" ascent="1638" descent="-410" />
<missing-glyph horiz-adv-x="520" />
<glyph horiz-adv-x="0" />
<glyph horiz-adv-x="682" />
<glyph unicode=" "  horiz-adv-x="520" />
<glyph unicode="&#x09;" horiz-adv-x="520" />
<glyph unicode="&#xa0;" horiz-adv-x="520" />
<glyph unicode="!" horiz-adv-x="901" d="M315 113q0 57 39.5 97t96.5 40t97 -40t40 -97q0 -56 -40 -96t-97 -40t-96.5 40t-39.5 96zM334 391v1102h233v-1102h-233z" />
<glyph unicode="&#x22;" horiz-adv-x="1146" d="M287 893v543h223v-543h-223zM635 893v543h225v-543h-225z" />
<glyph unicode="#" horiz-adv-x="1595" d="M227 403v197h267l47 238h-240v196h277l75 396h209l-78 -396h177l77 396h207l-76 -396h199v-196h-240l-45 -238h207v-197h-243l-78 -403h-207l76 403h-176l-76 -403h-205l76 403h-230zM700 600h177l47 238h-179z" />
<glyph unicode="$" horiz-adv-x="1339" d="M221 117l125 155q147 -88 283 -88q102 0 159.5 49t57.5 134q0 58 -31 106.5t-80 84.5t-109 71.5t-119.5 77.5t-108.5 91t-80 123t-31 164q0 146 76 235.5t210 119.5v202h226v-194q141 -15 272 -90l-100 -172q-108 67 -221 67q-213 0 -213 -163q0 -59 31 -108t80.5 -85.5 t109.5 -72t119.5 -77t109 -91t80.5 -123t31 -164.5q0 -157 -86.5 -251t-225.5 -124v-203h-223v193q-213 24 -342 133z" />
<glyph unicode="%" horiz-adv-x="2387" d="M221 1049q0 76 25 143.5t73 121.5t128 86t182 32q103 0 182 -31t126 -85.5t71 -121.5t24 -145t-24 -145t-71 -121.5t-126 -85.5t-182 -31q-102 0 -182 32t-128 86t-73 121.5t-25 143.5zM453 1049q0 -78 48 -132.5t128 -54.5q81 0 127.5 55t46.5 132q0 78 -46.5 132 t-127.5 54t-128.5 -53.5t-47.5 -132.5zM578 -25l909 1426h276l-909 -1426h-276zM1354 362q0 76 24.5 143.5t73 121.5t128 86t181.5 32q103 0 182 -31t126.5 -85.5t71.5 -121.5t24 -145t-24 -145t-71.5 -121t-126.5 -85t-182 -31q-102 0 -181.5 31.5t-128 86t-73 121.5 t-24.5 143zM1585 362q0 -78 48 -132t128 -54q81 0 127.5 54.5t46.5 131.5q0 78 -46.5 132.5t-127.5 54.5t-128.5 -54t-47.5 -133z" />
<glyph unicode="&#x26;" horiz-adv-x="1669" d="M236 342q0 127 73 235.5t219 213.5q-72 97 -106.5 180t-34.5 168q0 146 91.5 230.5t248.5 84.5q152 0 248 -79.5t96 -227.5q0 -59 -16.5 -112.5t-50 -102.5t-65 -85t-81.5 -85l213 -285q70 88 125 164l170 -139q-87 -118 -141 -183l270 -319h-285l-143 174 q-108 -101 -206 -147.5t-222 -46.5q-199 0 -301 103t-102 259zM477 367q0 -79 52.5 -125.5t140.5 -46.5q70 0 124 30.5t124 100.5l-242 311q-199 -130 -199 -270zM610 1126q0 -52 27 -99.5t86 -111.5q66 63 94.5 109t28.5 98q0 59 -31 94t-88 35q-56 0 -86.5 -35t-30.5 -90z " />
<glyph unicode="'" horiz-adv-x="802" d="M287 944v508h229v-508h-229z" />
<glyph unicode="(" horiz-adv-x="937" d="M236 621q0 258 89.5 495.5t260.5 421.5l141 -113q-123 -162 -184.5 -371.5t-61.5 -432.5t61.5 -433t184.5 -370l-141 -115q-171 184 -260.5 422t-89.5 496z" />
<glyph unicode=")" horiz-adv-x="937" d="M209 -182q123 160 184.5 370t61.5 433t-61.5 432.5t-184.5 371.5l143 113q170 -184 260 -422t90 -495t-90 -495.5t-260 -422.5z" />
<glyph unicode="*" horiz-adv-x="1249" d="M236 1198l73 188l207 -81l-10 208h235l-12 -208l205 81l82 -188l-232 -65l146 -172l-178 -136l-129 189l-127 -187l-179 131l146 175z" />
<glyph unicode="+" horiz-adv-x="1499" d="M242 434v191h397v389h225v-389h393v-191h-393v-391h-225v391h-397z" />
<glyph unicode="," horiz-adv-x="858" d="M231 -203l99 439h260l-166 -439h-193z" />
<glyph unicode="-" horiz-adv-x="1097" d="M283 528v189h530v-189h-530z" />
<glyph unicode="." horiz-adv-x="800" d="M264 109q0 57 39 97t96 40t97.5 -40t40.5 -97t-40.5 -96.5t-97.5 -39.5t-96 39.5t-39 96.5z" />
<glyph unicode="/" horiz-adv-x="1318" d="M209 -96l655 1607h250l-657 -1607h-248z" />
<glyph unicode="0" horiz-adv-x="1529" d="M256 723q0 58 1.5 104.5t7.5 108t16.5 110.5t29.5 104.5t45 97.5t64.5 82.5t87 66.5t113.5 41.5t143 15.5q99 0 178.5 -26t132 -66t91 -103t59 -123t32 -140.5t14.5 -140t3 -136.5q0 -74 -2.5 -131t-14 -138t-31 -141.5t-58 -125.5t-90.5 -107t-132 -69t-180 -27 q-78 0 -144.5 16.5t-115 43.5t-87.5 69t-64.5 85t-44.5 100.5t-29 107t-16 112t-7.5 107.5t-1.5 102zM508 725q0 -56 1.5 -98.5t7 -102t15.5 -103.5t29.5 -91t46 -77t67 -49.5t91.5 -19.5t91.5 20t66.5 49.5t45 78t28.5 91t15 103.5t6.5 101.5t1 97.5q0 56 -1 94.5 t-6.5 97.5t-15 100.5t-28.5 88t-45 75t-66.5 47.5t-91.5 19t-91.5 -18.5t-67 -47.5t-46 -74.5t-29.5 -87.5t-15.5 -100t-7 -98.5t-1.5 -95.5z" />
<glyph unicode="1" horiz-adv-x="1052" d="M195 1018l522 436l-2 -1454h-242v981l-135 -117z" />
<glyph unicode="2" horiz-adv-x="1423" d="M201 0l487 635q140 179 180.5 260t40.5 160q0 198 -190 198q-181 0 -199 -219h-241q30 420 440 420q69 0 129 -11t118 -39.5t98.5 -72t65.5 -114t25 -160.5q0 -69 -14 -125t-68.5 -151.5t-157.5 -225.5l-276 -358h530v-197h-968z" />
<glyph unicode="3" horiz-adv-x="1404" d="M219 328l236 37q56 -181 225 -181q101 0 160 60.5t59 169.5q0 124 -69.5 187t-167.5 63h-89l-41 202h99q113 0 170 59.5t57 149.5q0 82 -46.5 135.5t-135.5 53.5q-140 0 -184 -134l-207 46q78 278 409 278q86 0 156.5 -19.5t125.5 -60.5t85.5 -110t30.5 -162 q0 -72 -19.5 -130t-47 -91t-61 -56t-57.5 -31t-41 -10q60 -11 110 -36t92 -68.5t65.5 -112.5t23.5 -159q0 -96 -27.5 -171.5t-73 -123t-108.5 -78t-129 -43t-141 -12.5q-393 0 -459 348z" />
<glyph unicode="4" horiz-adv-x="1462" d="M213 295l256 973h225l-182 -774h315v940h252v-940h146v-199h-146v-295h-252v295h-614z" />
<glyph unicode="5" horiz-adv-x="1347" d="M203 37l65 188q56 -20 135 -33.5t146 -13.5q143 0 221 69.5t78 205.5q0 105 -45.5 167.5t-160 96t-312.5 33.5l133 684h629l-48 -199h-380l-64 -301q244 -1 372 -127.5t128 -349.5q0 -122 -42 -215.5t-116.5 -149.5t-169.5 -84t-207 -28q-84 0 -188 15.5t-174 41.5z" />
<glyph unicode="6" horiz-adv-x="1425" d="M244 461q0 45 4 86.5t14.5 84.5t19 75.5t29 78t32 71t40 75.5t41 71.5t47.5 79t47 78.5l166 273h244l-310 -547q43 36 101.5 55t116.5 19q165 0 264.5 -131.5t99.5 -352.5q0 -245 -125 -371t-352 -126q-228 0 -353.5 125t-125.5 356zM498 479q0 -157 61 -229t162 -72 t164 72t63 229q0 156 -63 228.5t-162 72.5q-101 0 -163 -77.5t-62 -223.5z" />
<glyph unicode="7" horiz-adv-x="1341" d="M223 1434h957l-688 -1434h-259l594 1225h-565z" />
<glyph unicode="8" horiz-adv-x="1474" d="M246 418q0 157 66.5 256t185.5 137q-72 21 -126.5 99t-54.5 192q0 153 107.5 252.5t310.5 99.5t309.5 -99t106.5 -255q0 -112 -51.5 -190t-130.5 -99q119 -36 189.5 -135t70.5 -258q0 -205 -125 -321.5t-369 -116.5q-245 0 -367 116t-122 322zM485 428q0 -127 70 -193.5 t180 -66.5q111 0 181.5 66.5t70.5 195.5q0 125 -70 194.5t-182 69.5t-181 -70t-69 -196zM551 1094q0 -84 51.5 -131.5t132.5 -47.5q80 0 131.5 47.5t51.5 131.5q0 85 -51.5 131.5t-131.5 46.5t-132 -46.5t-52 -131.5z" />
<glyph unicode="9" horiz-adv-x="1413" d="M229 956q0 246 122 372t349 126t348 -125t121 -358q0 -65 -12 -129.5t-29 -115t-48 -114.5t-55.5 -107t-67.5 -116t-68 -119l-152 -270h-241l297 547q-89 -74 -205 -74q-165 0 -262 130.5t-97 352.5zM471 954q0 -156 63 -228.5t164 -72.5q104 0 167 77.5t63 223.5 q0 157 -62 229t-166 72q-102 0 -165.5 -72.5t-63.5 -228.5z" />
<glyph unicode=":" horiz-adv-x="851" d="M291 109q0 58 38 97.5t97 39.5t98 -39.5t39 -97.5t-39 -97t-98 -39t-97 39t-38 97zM291 969q0 57 39 97t96 40t97 -40t40 -97q0 -56 -40 -95.5t-97 -39.5t-96 39.5t-39 95.5z" />
<glyph unicode=";" horiz-adv-x="907" d="M242 -303l102 446h252l-172 -446h-182zM328 969q0 57 39 97t96 40t97 -40t40 -97t-40 -96t-97 -39t-96 39t-39 96z" />
<glyph unicode="&#x3c;" horiz-adv-x="1396" d="M231 436v176l875 385v-211l-596 -262l596 -264v-205z" />
<glyph unicode="=" horiz-adv-x="1415" d="M293 109v192h829v-192h-829zM295 455v190h827v-190h-827z" />
<glyph unicode="&#x3e;" horiz-adv-x="1396" d="M291 55v207l596 264l-596 262v207l874 -381v-178z" />
<glyph unicode="?" horiz-adv-x="1329" d="M221 1061q8 393 441 393q73 0 136 -11.5t121.5 -40.5t100 -73t66 -113t24.5 -157q0 -64 -19.5 -121t-50.5 -99t-68.5 -80t-75 -72t-68.5 -67t-50.5 -72.5t-19.5 -82.5v-121h-240v117q0 57 19.5 108.5t50 91.5t68 78t75 73.5t68 71.5t50 80t19.5 91q0 97 -54.5 148.5 t-151.5 51.5q-93 0 -149.5 -48.5t-57.5 -145.5h-234zM502 109q0 57 39 97t96 40q58 0 99.5 -40.5t41.5 -96.5q0 -57 -41 -96.5t-100 -39.5q-57 0 -96 39.5t-39 96.5z" />
<glyph unicode="@" horiz-adv-x="2009" d="M244 618q0 150 43.5 276.5t119 216t178 152.5t219.5 93t243 30q208 0 374 -77.5t261.5 -220t95.5 -324.5q0 -67 -15 -135.5t-49.5 -136.5t-84 -120.5t-125.5 -85t-167 -32.5q-74 0 -128 26t-72 68q-92 -88 -201 -88q-135 0 -223 86t-88 234q0 80 27.5 159.5t79 147.5 t138.5 110.5t195 42.5q82 0 144.5 -23.5t98.5 -64t54 -89.5t18 -105q0 -40 -6.5 -79t-18.5 -97t-20 -111q12 -20 60 -14q72 17 119 105t47 200q0 130 -69.5 229t-185 150t-257.5 51q-92 0 -177 -22t-160 -69t-130.5 -113.5t-88 -161.5t-32.5 -208q0 -134 46 -236.5 t128.5 -166t192 -95.5t241.5 -32q274 0 477 113l62 -187q-246 -123 -539 -123q-183 0 -334 47.5t-260.5 138t-170 229t-60.5 312.5zM834 594q0 -62 35 -100.5t98 -38.5q60 0 109 41.5t73.5 101.5t24.5 121t-29 96t-90 35q-67 0 -119 -42t-77 -99.5t-25 -114.5z" />
<glyph unicode="A" horiz-adv-x="1402" d="M178 0l524 1454l521 -1454h-248l-68 207h-415l-68 -207h-246zM559 412h283l-140 450z" />
<glyph unicode="B" horiz-adv-x="1425" d="M315 18v1397q204 39 355 39q407 0 407 -356q0 -108 -47 -187.5t-131 -97.5q138 -20 215.5 -123.5t77.5 -263.5q0 -446 -498 -446q-175 0 -379 38zM565 197q70 -13 123 -13q121 0 185.5 64.5t64.5 183.5q0 117 -64 183.5t-196 66.5h-113v-485zM565 887h97q87 0 132.5 49.5 t45.5 140.5q0 170 -172 170q-72 0 -103 -8v-352z" />
<glyph unicode="C" horiz-adv-x="1691" d="M244 713q0 343 198.5 542t526.5 199q297 0 512 -188l-125 -168q-164 135 -363 135q-223 0 -360 -137t-137 -383q0 -124 37 -222t103 -161t155.5 -96t195.5 -33q217 0 375 135l125 -166q-108 -94 -234 -142t-286 -48q-215 0 -377.5 85.5t-254 252t-91.5 395.5z" />
<glyph unicode="D" horiz-adv-x="1568" d="M319 2v1430q167 22 304 22q154 0 275.5 -39.5t199.5 -107t129.5 -163t72.5 -200.5t21 -227t-21.5 -227t-72.5 -200.5t-129.5 -163t-200 -107t-276.5 -39.5q-135 0 -302 22zM569 193q75 -7 97 -7q191 0 290 141t99 390q0 248 -98.5 389t-288.5 141q-66 0 -99 -8v-1046z " />
<glyph unicode="E" horiz-adv-x="1261" d="M319 0v1434h676v-203h-426v-404h369v-202h-369v-420h426v-205h-676z" />
<glyph unicode="F" horiz-adv-x="1210" d="M319 0v1434h650v-201h-400v-402h338v-202h-338v-629h-250z" />
<glyph unicode="G" horiz-adv-x="1769" d="M244 717q0 148 38 270t105 207.5t161 144t205 86t238 27.5q150 0 272.5 -43t229.5 -141l-121 -168q-91 67 -178 99t-195 32q-104 0 -190.5 -30.5t-154 -91.5t-105 -161t-37.5 -231q0 -105 25.5 -191.5t70 -146t107.5 -100t136 -59.5t157 -19q77 0 127.5 10t113.5 33v331 h-286v201h536v-663q-91 -60 -222.5 -96.5t-281.5 -36.5q-127 0 -238 27.5t-206 85.5t-162.5 143.5t-106 208t-38.5 272.5z" />
<glyph unicode="H" horiz-adv-x="1593" d="M319 0v1434h250v-605h455v605h250v-1434h-250v604h-455v-604h-250z" />
<glyph unicode="I" horiz-adv-x="888" d="M319 0v1434h250v-1434h-250z" />
<glyph unicode="J" horiz-adv-x="905" d="M106 -350l44 190q46 -14 104 -14q47 0 64.5 26.5t17.5 92.5v1489h248v-1481q0 -169 -69 -250.5t-226 -81.5q-73 0 -183 29z" />
<glyph unicode="K" horiz-adv-x="1499" d="M319 0v1434h250v-678l467 674h279l-490 -695l516 -735h-288l-484 713v-713h-250z" />
<glyph unicode="L" horiz-adv-x="1130" d="M319 0v1434h250v-1229h338v-205h-588z" />
<glyph unicode="M" horiz-adv-x="2093" d="M205 0l340 1454l502 -950l501 950l338 -1454h-248l-182 799l-409 -819l-412 821l-182 -801h-248z" />
<glyph unicode="N" horiz-adv-x="1734" d="M319 0v1454l844 -881v861h250v-1454l-844 882v-862h-250z" />
<glyph unicode="O" horiz-adv-x="2004" d="M242 717q0 160 51.5 295t147 233t239.5 153.5t321 55.5t321 -55.5t240 -153.5t147.5 -233t51.5 -295t-51.5 -295t-147.5 -233t-240 -153.5t-321 -55.5t-321 55.5t-239.5 153.5t-147 233t-51.5 295zM508 717q0 -228 136 -372t357 -144q222 0 358 144t136 372t-136 372 t-358 144q-221 0 -357 -144t-136 -372z" />
<glyph unicode="P" horiz-adv-x="1368" d="M319 0v1413q143 41 306 41q520 0 520 -475q0 -465 -494 -465q-34 0 -82 6v-520h-250zM569 727q31 -6 78 -6q67 0 116 21t76 58t39.5 82t12.5 99q0 120 -58 193t-186 73q-37 0 -78 -8v-512z" />
<glyph unicode="Q" horiz-adv-x="2004" d="M242 717q0 160 51.5 295t147 233t239.5 153.5t321 55.5t321 -55.5t240 -153.5t147.5 -233t51.5 -295q0 -215 -90 -381.5t-258 -259.5l146 -240h-275l-96 162q-88 -18 -187 -18q-177 0 -321 55.5t-239.5 153.5t-147 233t-51.5 295zM508 717q0 -228 136 -372t357 -144 q42 0 62 2l-148 246h275l98 -164q99 66 153 178.5t54 253.5q0 228 -136 372t-358 144q-221 0 -357 -144t-136 -372z" />
<glyph unicode="R" horiz-adv-x="1402" d="M319 0v1413q143 41 306 41q520 0 520 -475q0 -342 -273 -434l338 -545h-264l-323 514q-18 0 -54 6v-520h-250zM569 727q31 -6 78 -6q67 0 116 21t76 58t39.5 82t12.5 99q0 120 -58 193t-186 73q-37 0 -78 -8v-512z" />
<glyph unicode="S" horiz-adv-x="1302" d="M199 117l125 155q147 -88 282 -88q102 0 159.5 49t57.5 134q0 58 -31 106.5t-80 84.5t-108.5 71.5t-119.5 77.5t-109 91t-80 123t-31 164q0 182 115.5 275.5t308.5 93.5q196 0 361 -96l-101 -172q-108 67 -221 67q-213 0 -213 -163q0 -59 31 -108t80.5 -85.5t109 -72 t119.5 -77t109.5 -91t80.5 -123t31 -164.5q0 -81 -25 -147t-67.5 -110.5t-100.5 -74.5t-122 -43.5t-135 -13.5q-118 0 -231 34.5t-195 102.5z" />
<glyph unicode="T" horiz-adv-x="1261" d="M223 1208v226h813v-226h-282v-1208h-250v1208h-281z" />
<glyph unicode="U" horiz-adv-x="1531" d="M309 446v988h248v-973q0 -75 18 -127t50 -77t65.5 -34.5t75.5 -9.5q32 0 58.5 5.5t54.5 21.5t47.5 42.5t32 72t12.5 106.5v973h252v-988q0 -466 -457 -466t-457 466z" />
<glyph unicode="V" horiz-adv-x="1404" d="M170 1434h264l268 -844l265 844h262l-524 -1457z" />
<glyph unicode="W" horiz-adv-x="2113" d="M174 1434h260l285 -795l338 815l336 -817l284 797h262l-530 -1454l-352 911l-352 -911z" />
<glyph unicode="X" horiz-adv-x="1357" d="M188 0l351 741l-332 693h270l199 -484l198 484h275l-330 -693l348 -741h-272l-217 526l-219 -526h-271z" />
<glyph unicode="Y" horiz-adv-x="1398" d="M172 1434h256l272 -580l267 580h258l-400 -844v-590h-250v590z" />
<glyph unicode="Z" horiz-adv-x="1323" d="M217 0v195l602 1044h-555v195h811v-195l-602 -1044h627v-195h-883z" />
<glyph unicode="[" horiz-adv-x="937" d="M328 -317v1769h366v-186h-135v-1399h135v-184h-366z" />
<glyph unicode="\" horiz-adv-x="1271" d="M209 1454h240l612 -1491h-240z" />
<glyph unicode="]" horiz-adv-x="937" d="M244 -133h131v1401h-131v184h366v-1769h-366v184z" />
<glyph unicode="^" horiz-adv-x="1452" d="M231 834l494 530l496 -530l-177 -154l-319 348l-317 -346z" />
<glyph unicode="_" horiz-adv-x="1468" d="M285 0h899v-197h-899v197z" />
<glyph unicode="`" horiz-adv-x="1073" d="M223 1620h275l221 -262h-230z" />
<glyph unicode="a" horiz-adv-x="1320" d="M176 0l486 1309l479 -1309h-248l-55 166h-361l-55 -166h-246zM543 356h231l-112 326z" />
<glyph unicode="b" horiz-adv-x="1351" d="M307 18v1254q204 37 336 37q375 0 375 -324q0 -60 -17 -113.5t-53.5 -93.5t-87.5 -51q126 -18 193 -109t67 -229q0 -407 -454 -407q-156 0 -359 36zM557 197q48 -11 102 -11q101 0 154 55.5t53 153.5q0 97 -53.5 152t-165.5 55h-90v-405zM557 807h78q70 0 107.5 41 t37.5 115q0 139 -139 139q-59 0 -84 -6v-289z" />
<glyph unicode="c" horiz-adv-x="1583" d="M238 641q0 309 180 488.5t479 179.5q275 0 475 -176l-125 -168q-43 29 -55.5 37.5t-52.5 30.5t-66 30t-69 16t-89 8q-187 0 -306.5 -118t-119.5 -328q0 -106 33 -190.5t90.5 -138t133 -81.5t163.5 -28q79 0 150 22t104 42t88 59l125 -166q-101 -88 -216.5 -133 t-264.5 -45q-299 0 -478 175t-179 484z" />
<glyph unicode="d" horiz-adv-x="1499" d="M309 2v1286q156 21 293 21q158 0 276 -37t188.5 -96.5t113.5 -148.5t58 -179.5t15 -202.5q0 -79 -7.5 -146t-27 -136.5t-50.5 -124.5t-82 -104t-117.5 -81.5t-159.5 -51.5t-207 -19q-123 0 -293 20zM559 193q14 -1 30.5 -2t29 -2t26.5 -1q177 0 268 121t91 336t-91 336 t-266 121q-58 0 -88 -6v-903z" />
<glyph unicode="e" horiz-adv-x="1257" d="M309 0v1290h690v-203h-440v-333h381v-201h-381v-348h440v-205h-690z" />
<glyph unicode="f" horiz-adv-x="1196" d="M309 0v1290h654v-200h-404v-332h340v-203h-340v-555h-250z" />
<glyph unicode="g" horiz-adv-x="1691" d="M240 645q0 170 53.5 299t149.5 207t220.5 117t274.5 39q146 0 263.5 -41t219.5 -136l-121 -149q-86 62 -168.5 91.5t-185.5 29.5q-97 0 -177.5 -25.5t-144.5 -78.5t-99.5 -142.5t-35.5 -208.5q0 -121 36.5 -211.5t101.5 -144t147 -79.5t180 -26q74 0 120.5 8.5 t103.5 28.5v275h-271v204h520v-596q-87 -57 -212.5 -90.5t-272.5 -33.5q-119 0 -222.5 23.5t-192.5 75.5t-152 128.5t-99 187.5t-36 248z" />
<glyph unicode="h" horiz-adv-x="1536" d="M309 0v1290h250v-536h416v536h250v-1290h-250v528h-416v-528h-250z" />
<glyph unicode="i" horiz-adv-x="870" d="M309 0v1290h250v-1290h-250z" />
<glyph unicode="j" horiz-adv-x="884" d="M109 -315l43 190q47 -12 98 -12q45 0 60.5 20.5t15.5 73.5v1333h249v-1323q0 -159 -67.5 -233t-222.5 -74q-70 0 -176 25z" />
<glyph unicode="k" horiz-adv-x="1460" d="M309 0v1290h250v-612l436 608h279l-459 -629l483 -657h-288l-451 637v-637h-250z" />
<glyph unicode="l" horiz-adv-x="1099" d="M309 0v1290h250v-1085h320v-205h-570z" />
<glyph unicode="m" horiz-adv-x="1959" d="M203 0l315 1309l463 -865l459 865l315 -1309h-248l-159 676l-367 -694l-369 692l-159 -674h-250z" />
<glyph unicode="n" horiz-adv-x="1669" d="M309 0v1309l801 -766v747h250v-1308l-801 768v-750h-250z" />
<glyph unicode="o" d="M238 645q0 144 47 265.5t134 210t218.5 138.5t294.5 50t295.5 -50t219.5 -138.5t134 -210t47 -265.5t-47 -265.5t-134 -210t-219.5 -138t-295.5 -49.5t-294.5 49.5t-218.5 138t-134 210t-47 265.5zM504 645q0 -195 118 -318.5t310 -123.5q193 0 311.5 123.5t118.5 318.5 t-118.5 318.5t-311.5 123.5q-192 0 -310 -123.5t-118 -318.5z" />
<glyph unicode="p" horiz-adv-x="1327" d="M307 0v1270q144 39 297 39q115 0 204 -25t144 -65.5t90 -98.5t48.5 -118t13.5 -130q0 -89 -23 -161t-75 -133t-147 -95t-228 -34q-24 0 -47 2t-27 2v-453h-250zM557 659q27 -4 70 -4q118 0 170.5 63t52.5 159q0 100 -54 162.5t-169 62.5q-29 0 -70 -6v-437z" />
<glyph unicode="q" d="M238 645q0 144 47 265.5t134 210t218.5 138.5t294.5 50t295.5 -50t219.5 -138.5t134 -210t47 -265.5q0 -190 -79.5 -338.5t-229.5 -232.5l135 -217h-274l-86 139q-89 -14 -162 -14q-163 0 -294.5 49.5t-218.5 138t-134 210t-47 265.5zM504 645q0 -195 118 -318.5 t310 -123.5h33l-136 219h275l88 -141q81 59 125.5 153t44.5 211q0 195 -118.5 318.5t-311.5 123.5q-192 0 -310 -123.5t-118 -318.5z" />
<glyph unicode="r" horiz-adv-x="1357" d="M307 0v1270q144 39 297 39q115 0 204 -25t144 -65.5t90 -98.5t48.5 -118t13.5 -130q0 -299 -242 -389l305 -483h-272l-291 449q-14 0 -29 2t-18 2v-453h-250zM557 659q27 -4 70 -4q118 0 170.5 63t52.5 159q0 100 -54 162.5t-169 62.5q-29 0 -70 -6v-437z" />
<glyph unicode="s" horiz-adv-x="1245" d="M203 113l123 155q138 -82 256 -82q89 0 136.5 40.5t47.5 109.5q0 48 -28 88.5t-72 71t-98 61t-108 67.5t-98 81.5t-72 111t-28 148.5q0 169 108.5 256.5t288.5 87.5q189 0 338 -88l-100 -172q-94 59 -199 59q-83 0 -134.5 -33t-51.5 -106q0 -50 28 -92t72.5 -73t98.5 -62 t108 -67.5t98.5 -80t72.5 -109.5t28 -147q0 -92 -35.5 -163t-96 -112t-132.5 -61t-154 -20q-110 0 -217 33t-180 98z" />
<glyph unicode="t" horiz-adv-x="1224" d="M221 1073v217h783v-217h-267v-1073h-250v1073h-266z" />
<glyph unicode="u" horiz-adv-x="1439" d="M299 406v884h250v-868q0 -63 14.5 -106t40.5 -64t54 -29t63 -8t62 8t53 29t40.5 64t14.5 106v868h252v-884q0 -424 -422 -424t-422 424z" />
<glyph unicode="v" horiz-adv-x="1325" d="M170 1290h262l230 -704l225 704h262l-483 -1310z" />
<glyph unicode="w" horiz-adv-x="1957" d="M172 1290h260l246 -665l301 684l299 -684l246 665h262l-492 -1308l-315 772l-315 -772z" />
<glyph unicode="x" horiz-adv-x="1318" d="M186 0l334 668l-317 622h272l182 -413l185 413h272l-313 -622l332 -668h-273l-201 451l-202 -451h-271z" />
<glyph unicode="y" horiz-adv-x="1323" d="M170 1290h256l236 -502l231 502h258l-365 -766v-524h-249v524z" />
<glyph unicode="z" horiz-adv-x="1290" d="M217 0v195l567 901h-524v194h782v-194l-567 -901h590v-195h-848z" />
<glyph unicode="{" horiz-adv-x="989" d="M217 502v149q50 13 84 38.5t50 62t22 71t6 78.5q0 29 -5 108.5t-5 137.5q0 326 264 326h121v-170q-72 -1 -110 -37.5t-38 -91.5q0 -36 6 -116.5t6 -131.5q0 -102 -29 -200.5t-93 -150.5q64 -52 93 -149t29 -199q0 -53 -6 -132t-6 -115q0 -54 38.5 -90.5t109.5 -36.5v-172 h-121q-264 0 -264 325q0 54 5 134.5t5 111.5q0 209 -162 250z" />
<glyph unicode="|" horiz-adv-x="876" d="M326 -342v1917h225v-1917h-225z" />
<glyph unicode="}" horiz-adv-x="987" d="M236 -147q72 3 109.5 38t37.5 89q0 36 -6 115t-6 132q0 101 29.5 198.5t93.5 149.5q-64 52 -93.5 150.5t-29.5 200.5q0 51 6 131.5t6 116.5q0 55 -37.5 90t-109.5 39v170h63q89 0 149 -21t91.5 -56t52.5 -91q29 -83 29 -211q0 -41 -4.5 -120t-2.5 -112q3 -37 10 -66 t23.5 -59t47.5 -52t77 -34v-149q-162 -41 -162 -250q0 -28 5.5 -102.5t5.5 -124.5q0 -59 -6.5 -104t-26.5 -92.5t-54 -78t-94 -50t-141 -19.5h-63v172z" />
<glyph unicode="~" horiz-adv-x="1429" d="M262 418q54 118 130 178.5t161 60.5q55 0 115.5 -28.5t115 -57t93.5 -28.5q34 0 61.5 22t62.5 78l166 -88q-42 -124 -115 -182t-161 -58q-58 0 -119.5 28.5t-114.5 56.5t-92 28q-67 0 -127 -98z" />
<glyph unicode="&#xa0;" horiz-adv-x="1097" d="M283 528v189h530v-189h-530z" />
<glyph unicode="&#xa1;" horiz-adv-x="829" d="M279 602q0 56 39.5 95.5t95.5 39.5q57 0 97 -39.5t40 -95.5q0 -57 -40 -97t-97 -40q-56 0 -95.5 40t-39.5 97zM297 -369v781h235v-781h-235z" />
<glyph unicode="&#xa2;" horiz-adv-x="1107" d="M238 326q0 124 61 208t172 115v115h205v-107q107 -19 176 -88l-123 -123q-53 43 -121 43q-75 0 -118.5 -46.5t-43.5 -116.5q0 -72 43 -118t117 -46q65 0 127 41l117 -123q-71 -71 -174 -90v-103h-205v111q-110 31 -171.5 118t-61.5 210z" />
<glyph unicode="&#xa3;" horiz-adv-x="1437" d="M242 0v158q115 61 169.5 138.5t63.5 182.5q4 30 0 105h-221v196h197q-17 139 -17 221v13q0 110 33.5 190t93.5 125t134 65.5t165 20.5q138 0 318 -55l-39 -172q-123 26 -217 33q-42 3 -66 -7q-39 -4 -66 -13t-54 -29t-40.5 -58.5t-13.5 -95.5v-25q0 -69 16 -213h291v-196 h-264q6 -46 6 -88q0 -70 -29.5 -152.5t-93.5 -148.5h584v-195h-950z" />
<glyph unicode="&#xa4;" horiz-adv-x="1568" d="M283 195l96 90q-70 110 -70 227q-3 124 72 240l-96 94l157 149l99 -96q115 68 241 68q130 0 246 -64l98 94l160 -151l-98 -94q65 -120 65 -228q3 -126 -67 -237l98 -92l-162 -152l-94 94q-115 -65 -244 -65q-135 0 -245 65l-97 -94zM526 510q3 -102 74 -177t182 -75 q114 0 186 80.5t70 185.5q-3 104 -73 179t-181 75q-114 0 -187 -80t-71 -188z" />
<glyph unicode="&#xa5;" horiz-adv-x="1472" d="M227 1384h260l248 -520l244 520h264l-330 -657h263v-188h-320v-109h320v-188h-320v-242h-238v242h-321v188h321v109h-321v188h262z" />
<glyph unicode="&#xa6;" horiz-adv-x="864" d="M319 -356v768h226v-768h-226zM319 680v778h226v-778h-226z" />
<glyph unicode="&#xa7;" horiz-adv-x="1269" d="M244 -74l43 180q170 -49 252 -53q47 -3 106 10q123 23 123 80q0 33 -37 70.5t-92 71.5t-120 78t-120 87t-92 101t-37 119q0 70 46.5 123t123.5 86q-63 57 -97 103.5t-44 102.5q-16 93 33 166q41 73 137 110.5t201 37.5q127 0 315 -56l-45 -180q-173 58 -309 35 q-111 -17 -111 -70q0 -37 51.5 -83t124.5 -94.5t146 -101.5t124.5 -121t51.5 -136q0 -65 -42.5 -121.5t-113.5 -91.5q63 -60 97.5 -110t41.5 -105q3 -40 -6 -82q-12 -57 -50 -101.5t-93.5 -70.5t-119 -39.5t-132.5 -13.5q-124 0 -356 69zM514 659q10 -36 48 -67.5t118 -79.5 q44 3 72 23t28 55q0 48 -68.5 101.5t-125.5 53.5q-36 0 -56 -30q-22 -22 -16 -56z" />
<glyph unicode="&#xa8;" horiz-adv-x="1130" d="M264 1505q0 57 39.5 97t95.5 40q57 0 97.5 -40t40.5 -97q0 -56 -40.5 -95.5t-97.5 -39.5q-55 0 -95 40t-40 95zM596 1505q0 57 39 97t96 40t97 -40t40 -97q0 -56 -40 -95.5t-97 -39.5t-96 39.5t-39 95.5z" />
<glyph unicode="&#xa9;" horiz-adv-x="1953" d="M244 707q0 113 29 221t90 204t146 168t206 114t262 42q143 0 264 -40.5t205.5 -110t144.5 -163t88 -198.5t29 -217q1 -114 -28 -222.5t-90 -205.5t-146.5 -170t-206.5 -115.5t-262 -42.5q-178 0 -320.5 62.5t-230.5 167t-134 234.5t-46 272zM352 709q0 -123 39 -235 t113.5 -203.5t196.5 -146t274 -54.5q121 0 224 37t175 100t123 147t75.5 178t24.5 193q0 97 -23.5 188.5t-74 173t-122.5 142t-175 96t-225 35.5t-225 -36.5t-176 -99t-124 -146t-75.5 -177t-24.5 -192.5zM616 719q0 75 26.5 143.5t74.5 122.5t124 86.5t167 32.5 q76 0 150 -28.5t126 -82.5l-135 -137q-56 49 -127 49q-78 0 -127 -54.5t-49 -131.5t49.5 -132t126.5 -55q60 0 131 48l129 -136q-102 -108 -274 -108q-91 0 -167 32t-124 85.5t-74.5 122t-26.5 143.5z" />
<glyph unicode="&#xaa;" horiz-adv-x="1343" d="M242 1079q0 171 93 273t255 102q156 0 233 -113v93h230v-713h-230v86q-73 -107 -227 -107q-166 0 -260 103.5t-94 275.5zM471 1079q0 -88 49 -137t127 -49t127 50t49 136t-49 134.5t-129 48.5q-77 0 -125.5 -47.5t-48.5 -135.5z" />
<glyph unicode="&#xab;" horiz-adv-x="1458" d="M229 569l389 451l150 -123l-281 -328l281 -327l-150 -125zM662 569l391 451l149 -123l-282 -328l282 -327l-149 -125z" />
<glyph unicode="&#xac;" horiz-adv-x="1613" d="M291 539v186h1026v-551h-219v365h-807z" />
<glyph unicode="&#xad;" horiz-adv-x="1097" d="M283 528v189h530v-189h-530z" />
<glyph unicode="&#xae;" horiz-adv-x="1953" d="M244 707q0 113 29 221t90 204t146 168t206 114t262 42q143 0 264 -40.5t205.5 -110t144.5 -163t88 -198.5t29 -217q1 -114 -28 -222.5t-90 -205.5t-146.5 -170t-206.5 -115.5t-262 -42.5q-178 0 -320.5 62.5t-230.5 167t-134 234.5t-46 272zM352 709q0 -123 39 -235 t113.5 -203.5t196.5 -146t274 -54.5q121 0 224 37t175 100t123 147t75.5 178t24.5 193q0 97 -23.5 188.5t-74 173t-122.5 142t-175 96t-225 35.5t-225 -36.5t-176 -99t-124 -146t-75.5 -177t-24.5 -192.5zM770 352v756q100 20 156 20q138 0 213 -71t75 -170 q0 -61 -37.5 -117.5t-105.5 -91.5l193 -326h-156l-174 287h-21v-287h-143zM913 760q12 -2 23 -2q63 0 98 34t35 93t-35 92t-98 33q-11 0 -23 -2v-248z" />
<glyph unicode="&#xaf;" horiz-adv-x="1028" d="M270 1421v172h488v-172h-488z" />
<glyph unicode="&#xb0;" horiz-adv-x="1112" d="M254 1176q0 123 76 200.5t225 77.5q77 0 136.5 -22.5t94.5 -61.5t52.5 -88t17.5 -106q0 -123 -75.5 -200t-225.5 -77t-225.5 79t-75.5 198zM428 1178q0 -60 38 -97t91 -37q51 0 88 36.5t37 93.5q0 58 -37 95.5t-86 37.5q-56 0 -93.5 -35.5t-37.5 -93.5z" />
<glyph unicode="&#xb1;" horiz-adv-x="1533" d="M258 434v191h397v389h226v-389h391v-191h-391v-317h-226v317h-397zM264 66h1018v-197h-1018v197z" />
<glyph unicode="&#xb2;" horiz-adv-x="1099" d="M174 512l381 479q84 107 84 195q0 86 -84 86q-36 0 -57.5 -22t-30.5 -74h-221q7 81 33.5 137.5t69.5 87.5t93 44t115 13q309 0 309 -287q0 -67 -23.5 -128t-86.5 -134l-181 -217h295v-180h-696z" />
<glyph unicode="&#xb3;" horiz-adv-x="1105" d="M199 750l219 34q17 -47 42.5 -72.5t78.5 -25.5q49 0 77.5 25.5t28.5 76.5q0 54 -34 81.5t-79 27.5h-88l-38 182h112q54 0 84.5 32t30.5 75q0 39 -27.5 68.5t-75.5 29.5q-65 0 -104 -80l-188 37q50 217 305 217q62 0 114.5 -13.5t96 -43t68 -81.5t24.5 -122 q0 -42 -9.5 -74t-22 -50.5t-33.5 -32t-35.5 -18.5t-36.5 -10.5t-29 -8.5q207 -34 207 -240q0 -78 -30 -132.5t-82 -82.5t-107.5 -39.5t-120.5 -11.5q-160 0 -242.5 60.5t-105.5 191.5z" />
<glyph unicode="&#xb4;" horiz-adv-x="1054" d="M201 1360l202 260h283l-274 -260h-211z" />
<glyph unicode="&#xb5;" horiz-adv-x="1339" d="M293 -340v1051h231v-387q0 -82 41 -124t105 -42q61 0 102 42t41 124v389h234v-713h-234v74q-24 -36 -63.5 -61.5t-85.5 -32.5q-40 -6 -78 -3q-29 2 -62 23v-340h-231z" />
<glyph unicode="&#xb6;" horiz-adv-x="1476" d="M215 1024q0 179 123.5 293.5t320.5 114.5h476v-1649h-211v1466h-105v-1466h-205v840q-180 -1 -289.5 113t-109.5 288z" />
<glyph unicode="&#xb7;" horiz-adv-x="819" d="M272 610q0 57 39.5 97.5t96.5 40.5t97 -40.5t40 -97.5q0 -56 -40 -95.5t-97 -39.5q-56 0 -96 40t-40 95z" />
<glyph unicode="&#xb8;" horiz-adv-x="1064" d="M164 -371l39 76q40 -12 84 -12q123 0 123 67q0 44 -32 63t-108 19l84 154h105l-43 -70q157 -16 157 -157q0 -52 -27.5 -88.5t-71.5 -53t-99 -21t-108.5 2t-102.5 20.5z" />
<glyph unicode="&#xb9;" horiz-adv-x="901" d="M172 1090l444 368l-2 -946h-223v512l-88 -76z" />
<glyph unicode="&#xba;" horiz-adv-x="1105" d="M252 1130q0 114 87.5 195.5t213.5 81.5t213.5 -82.5t87.5 -194.5q0 -116 -87.5 -197t-213.5 -81t-213.5 82t-87.5 196zM426 1133q0 -60 37.5 -98t91.5 -38q51 0 88 36t37 93q0 59 -37 97.5t-88 38.5q-54 0 -91.5 -36t-37.5 -93z" />
<glyph unicode="&#xbb;" horiz-adv-x="1458" d="M256 242l283 327l-283 328l150 123l391 -451l-391 -452zM690 242l281 327l-281 328l150 123l389 -451l-389 -452z" />
<glyph unicode="&#xbc;" horiz-adv-x="2234" d="M217 1200l445 369l-3 -946h-223v512l-88 -76zM590 -20l618 1554h265l-621 -1554h-262zM1253 184l160 654h203l-92 -473h147v567h234v-567h94v-181h-94v-184h-234v184h-418z" />
<glyph unicode="&#xbd;" horiz-adv-x="2207" d="M217 1200l445 369l-3 -946h-223v512l-88 -76zM590 -20l618 1554h265l-621 -1554h-262zM1333 0l2 90l307 389q84 110 84 195q0 86 -84 86q-32 0 -52 -22t-29 -74h-222q7 81 33 137.5t68.5 87.5t92 44t112.5 13q309 0 309 -287q0 -67 -23.5 -128t-87.5 -134l-180 -217h295 v-180h-625z" />
<glyph unicode="&#xbe;" horiz-adv-x="2308" d="M221 825l219 35q17 -47 42.5 -72.5t78.5 -25.5q49 0 78 25.5t29 76.5q0 54 -34 81.5t-79 27.5h-90l-37 182h113q53 0 83.5 32t30.5 75q0 39 -27 68.5t-75 29.5q-65 0 -104 -80l-191 37q53 217 305 217q62 0 114.5 -13.5t96.5 -43t69 -81.5t25 -122q0 -42 -9.5 -74.5 t-22 -50.5t-34 -32t-36 -18.5t-37 -11t-29.5 -8.5q209 -33 209 -239q0 -63 -20.5 -111t-53 -77t-78.5 -47.5t-91.5 -25t-96.5 -6.5q-160 0 -242.5 60.5t-105.5 191.5zM725 -20l618 1554h265l-621 -1554h-262zM1335 184l160 654h203l-92 -473h147v567h234v-567h94v-181h-94 v-184h-234v184h-418z" />
<glyph unicode="&#xbf;" horiz-adv-x="1329" d="M231 223q0 64 19.5 121t50.5 99t68.5 80t75.5 72t69 67t50.5 72.5t19.5 82.5v121h239v-117q0 -57 -19.5 -108.5t-50 -91.5t-68 -78t-75 -73.5t-68 -71.5t-50 -80t-19.5 -91q0 -97 55 -148.5t152 -51.5q93 0 149.5 48.5t57.5 145.5h233q-8 -393 -440 -393q-73 0 -136 11.5 t-121.5 40.5t-100 73t-66.5 113t-25 157zM563 1174q0 57 41.5 96t100.5 39q57 0 96 -39t39 -96t-39 -97.5t-96 -40.5q-58 0 -100 41t-42 97z" />
<glyph unicode="&#xc0;" horiz-adv-x="1402" d="M178 0l524 1454l521 -1454h-248l-68 207h-415l-68 -207h-246zM313 1796h275l221 -262h-229zM559 412h283l-140 450z" />
<glyph unicode="&#xc1;" horiz-adv-x="1402" d="M178 0l524 1454l521 -1454h-248l-68 207h-415l-68 -207h-246zM559 412h283l-140 450zM600 1534l203 260h282l-274 -260h-211z" />
<glyph unicode="&#xc2;" horiz-adv-x="1402" d="M178 0l524 1454l521 -1454h-248l-68 207h-415l-68 -207h-246zM426 1556l279 222l274 -222l-41 -49l-233 84l-236 -84zM559 412h283l-140 450z" />
<glyph unicode="&#xc3;" horiz-adv-x="1402" d="M178 0l524 1454l521 -1454h-248l-68 207h-415l-68 -207h-246zM436 1606q38 87 91 129.5t110 42.5q47 0 114 -36t91 -36q25 0 47.5 20t34.5 52l82 -86q-34 -84 -87.5 -128t-113.5 -44q-48 0 -115.5 36.5t-89.5 36.5q-24 0 -47 -20t-35 -53zM559 412h283l-140 450z" />
<glyph unicode="&#xc4;" horiz-adv-x="1402" d="M178 0l524 1454l521 -1454h-248l-68 207h-415l-68 -207h-246zM403 1638q0 57 40 97.5t96 40.5q57 0 97 -40.5t40 -97.5q0 -56 -40 -95.5t-97 -39.5q-56 0 -96 40t-40 95zM559 412h283l-140 450zM735 1638q0 57 39 97.5t96 40.5t97.5 -40.5t40.5 -97.5q0 -56 -40.5 -95.5 t-97.5 -39.5t-96 39.5t-39 95.5z" />
<glyph unicode="&#xc5;" horiz-adv-x="1404" d="M180 0l525 1454l520 -1454h-248l-68 207h-415l-68 -207h-246zM473 1567q0 85 62 148t170 63t170.5 -63t62.5 -150q0 -84 -63 -146.5t-168 -62.5q-109 0 -171.5 62.5t-62.5 148.5zM561 412h283l-139 450zM627 1567q0 -31 21.5 -53.5t58.5 -22.5q36 0 56.5 23t20.5 53 t-20.5 52.5t-56.5 22.5t-58 -22.5t-22 -52.5z" />
<glyph unicode="&#xc6;" horiz-adv-x="1992" d="M113 0l901 1434h715v-203h-465v-404h401v-202h-401v-420h465v-205h-715v207h-525l-114 -207h-262zM608 412h406v700z" />
<glyph unicode="&#xc7;" horiz-adv-x="1691" d="M244 713q0 343 198.5 542t526.5 199q297 0 512 -188l-125 -168q-164 135 -363 135q-223 0 -360 -137t-137 -383q0 -124 37 -222t103 -161t155.5 -96t195.5 -33q217 0 375 135l125 -166q-101 -89 -216.5 -135.5t-262.5 -52.5l-39 -64q157 -16 157 -158q0 -65 -41.5 -104.5 t-105.5 -50.5t-132 -6.5t-130 22.5l39 76q40 -12 84 -12q123 0 123 67q0 44 -32 63t-108 19l80 148q-301 19 -480 212t-179 519z" />
<glyph unicode="&#xc8;" horiz-adv-x="1261" d="M295 1796h274l222 -262h-230zM319 0v1434h676v-203h-426v-404h369v-202h-369v-420h426v-205h-676z" />
<glyph unicode="&#xc9;" horiz-adv-x="1261" d="M319 0v1434h676v-203h-426v-404h369v-202h-369v-420h426v-205h-676zM582 1534l202 260h283l-274 -260h-211z" />
<glyph unicode="&#xca;" horiz-adv-x="1261" d="M319 0v1434h676v-203h-426v-404h369v-202h-369v-420h426v-205h-676zM408 1556l278 222l275 -222l-41 -49l-234 84l-235 -84z" />
<glyph unicode="&#xcb;" horiz-adv-x="1261" d="M319 0v1434h676v-203h-426v-404h369v-202h-369v-420h426v-205h-676zM385 1638q0 57 39.5 97.5t95.5 40.5q57 0 97 -40.5t40 -97.5q0 -56 -40 -95.5t-97 -39.5q-56 0 -95.5 39.5t-39.5 95.5zM717 1638q0 57 39 97.5t96 40.5t97 -40.5t40 -97.5q0 -56 -40 -95.5t-97 -39.5 t-96 39.5t-39 95.5z" />
<glyph unicode="&#xcc;" horiz-adv-x="888" d="M45 1806h274l222 -262h-230zM319 0v1434h250v-1434h-250z" />
<glyph unicode="&#xcd;" horiz-adv-x="888" d="M319 0v1434h250v-1434h-250zM334 1544l203 260h282l-274 -260h-211z" />
<glyph unicode="&#xce;" horiz-adv-x="888" d="M160 1567l278 221l275 -221l-41 -49l-234 84l-235 -84zM319 0v1434h250v-1434h-250z" />
<glyph unicode="&#xcf;" horiz-adv-x="888" d="M137 1649q0 57 39.5 97t95.5 40q57 0 97.5 -40t40.5 -97q0 -56 -40.5 -96t-97.5 -40q-55 0 -95 40t-40 96zM319 0v1434h250v-1434h-250zM469 1649q0 57 39 97t96 40t97 -40t40 -97q0 -56 -40 -96t-97 -40t-96 40t-39 96z" />
<glyph unicode="&#xd0;" horiz-adv-x="1579" d="M209 641v209h121v582q167 22 303 22q154 0 275.5 -39.5t199.5 -107t129.5 -163t72.5 -200.5t21 -227t-21.5 -227t-72.5 -200.5t-129.5 -163t-200 -107t-276.5 -39.5q-134 0 -301 22v639h-121zM580 193q75 -7 96 -7q191 0 290 141t99 390q0 248 -98.5 389t-288.5 141 q-65 0 -98 -8v-389h241v-209h-241v-448z" />
<glyph unicode="&#xd1;" horiz-adv-x="1734" d="M319 0v1454l844 -881v861h250v-1454l-844 882v-862h-250zM590 1606q38 87 91 129.5t110 42.5q47 0 113.5 -36t90.5 -36q25 0 47.5 20t34.5 52l82 -86q-34 -84 -87.5 -128t-113.5 -44q-48 0 -115 36.5t-89 36.5q-24 0 -47 -20t-35 -53z" />
<glyph unicode="&#xd2;" horiz-adv-x="2004" d="M242 717q0 160 51.5 295t147 233t239.5 153.5t321 55.5t321 -55.5t240 -153.5t147.5 -233t51.5 -295t-51.5 -295t-147.5 -233t-240 -153.5t-321 -55.5t-321 55.5t-239.5 153.5t-147 233t-51.5 295zM508 717q0 -228 136 -372t357 -144q222 0 358 144t136 372t-136 372 t-358 144q-221 0 -357 -144t-136 -372zM606 1796h275l221 -262h-230z" />
<glyph unicode="&#xd3;" horiz-adv-x="2004" d="M242 717q0 160 51.5 295t147 233t239.5 153.5t321 55.5t321 -55.5t240 -153.5t147.5 -233t51.5 -295t-51.5 -295t-147.5 -233t-240 -153.5t-321 -55.5t-321 55.5t-239.5 153.5t-147 233t-51.5 295zM508 717q0 -228 136 -372t357 -144q222 0 358 144t136 372t-136 372 t-358 144q-221 0 -357 -144t-136 -372zM893 1534l203 260h282l-274 -260h-211z" />
<glyph unicode="&#xd4;" horiz-adv-x="2004" d="M242 717q0 160 51.5 295t147 233t239.5 153.5t321 55.5t321 -55.5t240 -153.5t147.5 -233t51.5 -295t-51.5 -295t-147.5 -233t-240 -153.5t-321 -55.5t-321 55.5t-239.5 153.5t-147 233t-51.5 295zM508 717q0 -228 136 -372t357 -144q222 0 358 144t136 372t-136 372 t-358 144q-221 0 -357 -144t-136 -372zM719 1556l278 222l275 -222l-41 -49l-234 84l-235 -84z" />
<glyph unicode="&#xd5;" horiz-adv-x="2004" d="M242 717q0 160 51.5 295t147 233t239.5 153.5t321 55.5t321 -55.5t240 -153.5t147.5 -233t51.5 -295t-51.5 -295t-147.5 -233t-240 -153.5t-321 -55.5t-321 55.5t-239.5 153.5t-147 233t-51.5 295zM508 717q0 -228 136 -372t357 -144q222 0 358 144t136 372t-136 372 t-358 144q-221 0 -357 -144t-136 -372zM729 1606q38 87 91 129.5t110 42.5q47 0 114 -36t91 -36q25 0 47.5 20t34.5 52l81 -86q-34 -84 -87 -128t-113 -44q-48 0 -115.5 36.5t-89.5 36.5q-24 0 -47 -20t-35 -53z" />
<glyph unicode="&#xd6;" horiz-adv-x="2004" d="M242 717q0 160 51.5 295t147 233t239.5 153.5t321 55.5t321 -55.5t240 -153.5t147.5 -233t51.5 -295t-51.5 -295t-147.5 -233t-240 -153.5t-321 -55.5t-321 55.5t-239.5 153.5t-147 233t-51.5 295zM508 717q0 -228 136 -372t357 -144q222 0 358 144t136 372t-136 372 t-358 144q-221 0 -357 -144t-136 -372zM698 1638q0 57 40 97.5t96 40.5q57 0 97 -40.5t40 -97.5q0 -56 -40 -95.5t-97 -39.5q-56 0 -96 40t-40 95zM1030 1638q0 57 39 97.5t96 40.5t97.5 -40.5t40.5 -97.5q0 -56 -40.5 -95.5t-97.5 -39.5t-96 39.5t-39 95.5z" />
<glyph unicode="&#xd7;" horiz-adv-x="1515" d="M254 186l354 340q-69 67 -201.5 197.5t-148.5 146.5q58 58 74 72l63 64l359 -344l360 344l148 -134l-361 -346q69 -64 195 -186t157 -152q-26 -24 -71.5 -70.5t-69.5 -68.5l-356 344l-361 -344l-69 70q-1 1 -13 10.5t-25.5 22t-33.5 34.5z" />
<glyph unicode="&#xd8;" horiz-adv-x="2007" d="M244 717q0 160 51.5 295t147.5 233t240 153.5t321 55.5q74 0 163 -14l35 86h250l-63 -156q180 -89 277 -259.5t97 -393.5q0 -160 -51.5 -295t-147 -233t-239.5 -153.5t-321 -55.5q-91 0 -179 16l-30 -78h-248l61 150q-176 92 -270 260.5t-94 388.5zM510 717 q0 -134 49.5 -243.5t140.5 -178.5l381 932q-40 6 -77 6q-221 0 -357.5 -144.5t-136.5 -371.5zM913 207q43 -6 91 -6q222 0 357.5 144t135.5 372q0 137 -52.5 248.5t-148.5 179.5z" />
<glyph unicode="&#xd9;" horiz-adv-x="1531" d="M309 446v988h248v-973q0 -75 18 -127t50 -77t65.5 -34.5t75.5 -9.5q32 0 58.5 5.5t54.5 21.5t47.5 42.5t32 72t12.5 106.5v973h252v-988q0 -466 -457 -466t-457 466zM375 1796h274l221 -262h-229z" />
<glyph unicode="&#xda;" horiz-adv-x="1531" d="M309 446v988h248v-973q0 -75 18 -127t50 -77t65.5 -34.5t75.5 -9.5q32 0 58.5 5.5t54.5 21.5t47.5 42.5t32 72t12.5 106.5v973h252v-988q0 -466 -457 -466t-457 466zM662 1534l202 260h283l-275 -260h-210z" />
<glyph unicode="&#xdb;" horiz-adv-x="1531" d="M309 446v988h248v-973q0 -75 18 -127t50 -77t65.5 -34.5t75.5 -9.5q32 0 58.5 5.5t54.5 21.5t47.5 42.5t32 72t12.5 106.5v973h252v-988q0 -466 -457 -466t-457 466zM487 1556l279 222l274 -222l-41 -49l-233 84l-236 -84z" />
<glyph unicode="&#xdc;" horiz-adv-x="1531" d="M309 446v988h248v-973q0 -75 18 -127t50 -77t65.5 -34.5t75.5 -9.5q32 0 58.5 5.5t54.5 21.5t47.5 42.5t32 72t12.5 106.5v973h252v-988q0 -466 -457 -466t-457 466zM467 1638q0 57 39.5 97.5t95.5 40.5q57 0 97 -40.5t40 -97.5q0 -56 -40 -95.5t-97 -39.5 q-56 0 -95.5 39.5t-39.5 95.5zM799 1638q0 57 39 97.5t96 40.5t97 -40.5t40 -97.5q0 -56 -40 -95.5t-97 -39.5t-96 39.5t-39 95.5z" />
<glyph unicode="&#xdd;" horiz-adv-x="1398" d="M172 1434h256l272 -580l267 580h258l-400 -844v-590h-250v590zM598 1534l203 260h282l-274 -260h-211z" />
<glyph unicode="&#xde;" horiz-adv-x="1363" d="M319 0v1434h250v-285q32 8 82 8q94 0 169.5 -17t129 -48.5t92 -73t61 -95t32.5 -110t10 -121.5q0 -465 -494 -465q-34 0 -82 6v-233h-250zM569 440q31 -6 78 -6q129 0 186.5 71.5t57.5 186.5t-57.5 186.5t-186.5 71.5q-47 0 -78 -6v-504z" />
<glyph unicode="&#xdf;" horiz-adv-x="1484" d="M299 0v1055q0 203 109.5 298t306.5 95q204 0 303.5 -99.5t99.5 -281.5q0 -192 -137 -315q63 -36 106 -66.5t88 -77t68 -106t23 -131.5q0 -170 -135 -270.5t-392 -100.5h-65l2 195h69q126 0 203.5 50t77.5 140q0 30 -11 56.5t-26 45.5t-44 41t-50.5 35.5t-61.5 37.5 t-63 38q-42 28 -62 50.5t-20 55.5q0 8 1 16t4.5 15.5t5.5 13t8 12.5t8.5 11t10.5 11t10.5 9t11.5 10t10 9q58 49 77 75q42 57 42 136q0 91 -41 141.5t-123 50.5q-87 0 -129.5 -47.5t-42.5 -152.5v-1055h-242z" />
<glyph unicode="&#xe0;" horiz-adv-x="1320" d="M176 0l486 1309l479 -1309h-248l-55 166h-361l-55 -166h-246zM268 1649h275l221 -263h-229zM543 356h231l-112 326z" />
<glyph unicode="&#xe1;" horiz-adv-x="1320" d="M176 0l486 1309l479 -1309h-248l-55 166h-361l-55 -166h-246zM543 356h231l-112 326zM557 1386l203 261h282l-274 -261h-211z" />
<glyph unicode="&#xe2;" horiz-adv-x="1320" d="M176 0l486 1309l479 -1309h-248l-55 166h-361l-55 -166h-246zM383 1409l279 221l274 -221l-41 -49l-233 84l-236 -84zM543 356h231l-112 326z" />
<glyph unicode="&#xe3;" horiz-adv-x="1320" d="M176 0l486 1309l479 -1309h-248l-55 166h-361l-55 -166h-246zM393 1456q38 87 91 129.5t110 42.5q47 0 114 -36t91 -36q25 0 47.5 20t34.5 52l82 -86q-34 -84 -87.5 -128t-113.5 -44q-48 0 -115.5 37t-89.5 37q-24 0 -47 -20.5t-35 -53.5zM543 356h231l-112 326z" />
<glyph unicode="&#xe4;" horiz-adv-x="1320" d="M176 0l486 1309l479 -1309h-248l-55 166h-361l-55 -166h-246zM360 1489q0 57 40 97t96 40q57 0 97 -40t40 -97q0 -56 -40 -95.5t-97 -39.5q-56 0 -96 40t-40 95zM543 356h231l-112 326zM692 1489q0 57 39 97t96 40t97.5 -40t40.5 -97q0 -56 -40.5 -95.5t-97.5 -39.5 t-96 39.5t-39 95.5z" />
<glyph unicode="&#xe5;" horiz-adv-x="1320" d="M176 0l486 1309l479 -1309h-248l-55 166h-361l-55 -166h-246zM424 1597q0 86 61.5 148.5t169.5 62.5q109 0 171.5 -63t62.5 -150q0 -84 -63.5 -146.5t-168.5 -62.5q-109 0 -171 62.5t-62 148.5zM543 356h231l-112 326zM578 1597q0 -31 21 -53t58 -22q36 0 57 22.5 t21 52.5t-21 53t-57 23t-57.5 -23t-21.5 -53z" />
<glyph unicode="&#xe6;" horiz-adv-x="1867" d="M119 0l825 1290h666v-203h-414v-333h358v-201h-358v-348h414v-205h-666v174h-457l-106 -174h-262zM604 365h340v553z" />
<glyph unicode="&#xe7;" horiz-adv-x="1585" d="M240 641q0 309 180 488.5t479 179.5q275 0 475 -176l-125 -168q-52 35 -70.5 46.5t-65 35t-92.5 32t-103 8.5q-187 0 -306.5 -118t-119.5 -328q0 -141 57.5 -242t150.5 -148.5t211 -47.5q79 0 150 22t104 42t88 59l125 -166q-98 -85 -207 -129.5t-249 -48.5l-21 -33 q158 -16 158 -158q0 -65 -41.5 -104.5t-105.5 -50.5t-132.5 -6.5t-130.5 22.5l39 76q43 -13 84 -13q58 0 90.5 17.5t32.5 50.5q0 44 -31.5 63t-107.5 19l65 121q-268 22 -424.5 194t-156.5 461z" />
<glyph unicode="&#xe8;" horiz-adv-x="1257" d="M268 1649h275l221 -263h-229zM309 0v1290h690v-203h-440v-333h381v-201h-381v-348h440v-205h-690z" />
<glyph unicode="&#xe9;" horiz-adv-x="1257" d="M309 0v1290h690v-203h-440v-333h381v-201h-381v-348h440v-205h-690zM557 1386l203 261h282l-274 -261h-211z" />
<glyph unicode="&#xea;" horiz-adv-x="1257" d="M309 0v1290h690v-203h-440v-333h381v-201h-381v-348h440v-205h-690zM383 1409l279 221l274 -221l-41 -49l-233 84l-236 -84z" />
<glyph unicode="&#xeb;" horiz-adv-x="1257" d="M309 0v1290h690v-203h-440v-333h381v-201h-381v-348h440v-205h-690zM360 1489q0 57 40 97t96 40q57 0 97 -40t40 -97q0 -56 -40 -95.5t-97 -39.5q-56 0 -96 40t-40 95zM692 1489q0 57 39 97t96 40t97.5 -40t40.5 -97q0 -56 -40.5 -95.5t-97.5 -39.5t-96 39.5t-39 95.5z " />
<glyph unicode="&#xec;" horiz-adv-x="870" d="M43 1649h274l222 -263h-230zM309 0v1290h250v-1290h-250z" />
<glyph unicode="&#xed;" horiz-adv-x="870" d="M309 0v1290h250v-1290h-250zM332 1386l203 261h282l-274 -261h-211z" />
<glyph unicode="&#xee;" horiz-adv-x="870" d="M158 1409l278 221l275 -221l-41 -49l-234 84l-235 -84zM309 0v1290h250v-1290h-250z" />
<glyph unicode="&#xef;" horiz-adv-x="870" d="M135 1489q0 57 39.5 97t95.5 40q57 0 97.5 -40t40.5 -97q0 -56 -40.5 -95.5t-97.5 -39.5q-56 0 -95.5 40t-39.5 95zM309 0v1290h250v-1290h-250zM467 1489q0 57 39 97t96 40t97 -40t40 -97q0 -56 -40 -95.5t-97 -39.5t-96 39.5t-39 95.5z" />
<glyph unicode="&#xf0;" horiz-adv-x="1511" d="M207 578v188h112v522q156 21 293 21q158 0 276 -37t188.5 -96.5t114 -148.5t58.5 -179.5t15 -202.5q0 -79 -7.5 -146t-27 -136.5t-51 -124.5t-82 -104t-117.5 -81.5t-160 -51.5t-207 -19q-123 0 -293 20v576h-112zM569 193q14 -1 30.5 -2t29 -2t26.5 -1q177 0 268 121 t91 336t-91 336t-266 121q-58 0 -88 -6v-330h189v-188h-189v-385z" />
<glyph unicode="&#xf1;" horiz-adv-x="1667" d="M307 0v1309l801 -766v747h250v-1308l-801 768v-750h-250zM557 1456q38 87 91 129.5t110 42.5q47 0 114 -36t91 -36q25 0 47 20t34 52l82 -86q-34 -84 -87 -128t-113 -44q-48 0 -115.5 37t-89.5 37q-24 0 -47 -20.5t-35 -53.5z" />
<glyph unicode="&#xf2;" d="M238 645q0 144 47 265.5t134 210t218.5 138.5t294.5 50t295.5 -50t219.5 -138.5t134 -210t47 -265.5t-47 -265.5t-134 -210t-219.5 -138t-295.5 -49.5t-294.5 49.5t-218.5 138t-134 210t-47 265.5zM504 645q0 -195 118 -318.5t310 -123.5q193 0 311.5 123.5t118.5 318.5 t-118.5 318.5t-311.5 123.5q-192 0 -310 -123.5t-118 -318.5zM541 1649h274l221 -263h-229z" />
<glyph unicode="&#xf3;" d="M238 645q0 144 47 265.5t134 210t218.5 138.5t294.5 50t295.5 -50t219.5 -138.5t134 -210t47 -265.5t-47 -265.5t-134 -210t-219.5 -138t-295.5 -49.5t-294.5 49.5t-218.5 138t-134 210t-47 265.5zM504 645q0 -195 118 -318.5t310 -123.5q193 0 311.5 123.5t118.5 318.5 t-118.5 318.5t-311.5 123.5q-192 0 -310 -123.5t-118 -318.5zM827 1386l203 261h283l-275 -261h-211z" />
<glyph unicode="&#xf4;" d="M238 645q0 144 47 265.5t134 210t218.5 138.5t294.5 50t295.5 -50t219.5 -138.5t134 -210t47 -265.5t-47 -265.5t-134 -210t-219.5 -138t-295.5 -49.5t-294.5 49.5t-218.5 138t-134 210t-47 265.5zM504 645q0 -195 118 -318.5t310 -123.5q193 0 311.5 123.5t118.5 318.5 t-118.5 318.5t-311.5 123.5q-192 0 -310 -123.5t-118 -318.5zM653 1409l279 221l274 -221l-41 -49l-233 84l-236 -84z" />
<glyph unicode="&#xf5;" d="M238 645q0 144 47 265.5t134 210t218.5 138.5t294.5 50t295.5 -50t219.5 -138.5t134 -210t47 -265.5t-47 -265.5t-134 -210t-219.5 -138t-295.5 -49.5t-294.5 49.5t-218.5 138t-134 210t-47 265.5zM504 645q0 -195 118 -318.5t310 -123.5q193 0 311.5 123.5t118.5 318.5 t-118.5 318.5t-311.5 123.5q-192 0 -310 -123.5t-118 -318.5zM664 1456q38 87 90.5 129.5t109.5 42.5q47 0 114 -36t91 -36q25 0 47.5 20t34.5 52l82 -86q-34 -84 -87.5 -128t-113.5 -44q-48 0 -115.5 37t-89.5 37q-24 0 -47 -20.5t-35 -53.5z" />
<glyph unicode="&#xf6;" d="M238 645q0 144 47 265.5t134 210t218.5 138.5t294.5 50t295.5 -50t219.5 -138.5t134 -210t47 -265.5t-47 -265.5t-134 -210t-219.5 -138t-295.5 -49.5t-294.5 49.5t-218.5 138t-134 210t-47 265.5zM504 645q0 -195 118 -318.5t310 -123.5q193 0 311.5 123.5t118.5 318.5 t-118.5 318.5t-311.5 123.5q-192 0 -310 -123.5t-118 -318.5zM631 1489q0 57 39.5 97t95.5 40q57 0 97 -40t40 -97q0 -56 -40 -95.5t-97 -39.5q-56 0 -95.5 40t-39.5 95zM963 1489q0 57 39 97t96 40t97 -40t40 -97q0 -56 -40 -95.5t-97 -39.5t-96 39.5t-39 95.5z" />
<glyph unicode="&#xf7;" horiz-adv-x="1155" d="M260 266v168h635v-168h-635zM463 86q0 48 31 81.5t81 33.5t82.5 -33.5t32.5 -81.5q0 -47 -32.5 -80t-82.5 -33t-81 33t-31 80zM463 616q0 47 33 81t79 34q47 0 81 -34t34 -81t-34 -80.5t-81 -33.5q-46 0 -79 33.5t-33 80.5z" />
<glyph unicode="&#xf8;" d="M238 645q0 144 47 265.5t134 210t218.5 138.5t294.5 50q69 0 145 -13l58 144h249l-88 -213q160 -81 246 -233.5t86 -348.5q0 -144 -47 -265.5t-134 -210t-219.5 -138t-295.5 -49.5q-67 0 -139 10l-66 -160h-248l92 227q-161 81 -247 234t-86 352zM504 645 q0 -114 42.5 -206.5t119.5 -151.5l323 796q-36 4 -57 4q-192 0 -310 -123.5t-118 -318.5zM879 205q18 -2 53 -2q193 0 311.5 123.5t118.5 318.5q0 111 -41.5 202t-116.5 152z" />
<glyph unicode="&#xf9;" horiz-adv-x="1439" d="M299 406v884h250v-868q0 -63 14.5 -106t40.5 -64t54 -29t63 -8t62 8t53 29t40.5 64t14.5 106v868h252v-884q0 -424 -422 -424t-422 424zM334 1649h274l221 -263h-229z" />
<glyph unicode="&#xfa;" horiz-adv-x="1439" d="M299 406v884h250v-868q0 -63 14.5 -106t40.5 -64t54 -29t63 -8t62 8t53 29t40.5 64t14.5 106v868h252v-884q0 -424 -422 -424t-422 424zM621 1386l202 261h283l-275 -261h-210z" />
<glyph unicode="&#xfb;" horiz-adv-x="1439" d="M299 406v884h250v-868q0 -63 14.5 -106t40.5 -64t54 -29t63 -8t62 8t53 29t40.5 64t14.5 106v868h252v-884q0 -424 -422 -424t-422 424zM446 1409l279 221l274 -221l-41 -49l-233 84l-236 -84z" />
<glyph unicode="&#xfc;" horiz-adv-x="1439" d="M299 406v884h250v-868q0 -63 14.5 -106t40.5 -64t54 -29t63 -8t62 8t53 29t40.5 64t14.5 106v868h252v-884q0 -424 -422 -424t-422 424zM424 1489q0 57 39.5 97t95.5 40q57 0 97 -40t40 -97q0 -56 -40 -95.5t-97 -39.5q-55 0 -95 40t-40 95zM756 1489q0 57 39 97t96 40 t97 -40t40 -97q0 -56 -40 -95.5t-97 -39.5t-96 39.5t-39 95.5z" />
<glyph unicode="&#xfd;" horiz-adv-x="1323" d="M170 1290h256l236 -502l231 502h258l-365 -766v-524h-249v524zM573 1386l203 261h283l-275 -261h-211z" />
<glyph unicode="&#xfe;" horiz-adv-x="1267" d="M295 0v1290h250v-250q23 9 65 9q451 0 451 -426q0 -424 -451 -424q-45 0 -65 4v-203h-250zM545 410q25 -4 61 -4q108 0 154.5 60.5t46.5 156.5q0 97 -46.5 158t-154.5 61q-36 0 -61 -4v-428z" />
<glyph unicode="&#xff;" horiz-adv-x="1323" d="M170 1290h256l236 -502l231 502h258l-365 -766v-524h-249v524zM379 1489q0 57 39.5 97t95.5 40q57 0 97 -40t40 -97q0 -56 -40 -95.5t-97 -39.5q-56 0 -95.5 40t-39.5 95zM711 1489q0 57 39 97t96 40t97 -40t40 -97q0 -56 -40 -95.5t-97 -39.5t-96 39.5t-39 95.5z" />
<glyph unicode="&#x152;" horiz-adv-x="2447" d="M231 717q0 160 51.5 295t147.5 233t240 153.5t321 55.5q299 0 496 -219v199h696v-203h-446v-404h383v-202h-383v-420h446v-205h-696v178q-195 -198 -496 -198q-177 0 -321 55.5t-240 153.5t-147.5 233t-51.5 295zM498 717q0 -228 136 -372t357 -144q222 0 358 144 t136 372t-136 372t-358 144q-221 0 -357 -144t-136 -372z" />
<glyph unicode="&#x153;" horiz-adv-x="2252" d="M236 645q0 143 50 265t140 210.5t223.5 138.5t294.5 50q203 0 359 -103v84h690v-203h-441v-333h381v-201h-381v-348h441v-205h-690v80q-156 -98 -359 -98q-161 0 -294.5 50t-223.5 138t-140 210t-50 265zM487 645q0 -203 126 -331t331 -128q119 0 211.5 36t147.5 100v645 q-55 64 -147 99.5t-212 35.5q-206 0 -331.5 -127.5t-125.5 -329.5z" />
<glyph unicode="&#x178;" horiz-adv-x="1398" d="M172 1434h256l272 -580l267 580h258l-400 -844v-590h-250v590zM401 1638q0 57 40 97.5t96 40.5q57 0 97 -40.5t40 -97.5q0 -56 -40 -95.5t-97 -39.5q-56 0 -96 40t-40 95zM733 1638q0 57 39 97.5t96 40.5t97.5 -40.5t40.5 -97.5q0 -56 -40.5 -95.5t-97.5 -39.5t-96 39.5 t-39 95.5z" />
<glyph unicode="&#x2c6;" horiz-adv-x="1210" d="M283 1380l278 222l275 -222l-41 -49l-234 84l-235 -84z" />
<glyph unicode="&#x2dc;" horiz-adv-x="970" d="M201 1458q38 87 90.5 129.5t109.5 42.5q47 0 114 -35.5t91 -35.5q25 0 47.5 19.5t34.5 51.5l82 -86q-34 -84 -87.5 -128t-113.5 -44q-38 0 -77.5 18.5t-72.5 37t-54 18.5q-24 0 -47 -20.5t-35 -53.5z" />
<glyph unicode="&#x2000;" horiz-adv-x="904" />
<glyph unicode="&#x2001;" horiz-adv-x="1808" />
<glyph unicode="&#x2002;" horiz-adv-x="904" />
<glyph unicode="&#x2003;" horiz-adv-x="1808" />
<glyph unicode="&#x2004;" horiz-adv-x="602" />
<glyph unicode="&#x2005;" horiz-adv-x="452" />
<glyph unicode="&#x2006;" horiz-adv-x="301" />
<glyph unicode="&#x2007;" horiz-adv-x="301" />
<glyph unicode="&#x2008;" horiz-adv-x="226" />
<glyph unicode="&#x2009;" horiz-adv-x="361" />
<glyph unicode="&#x200a;" horiz-adv-x="100" />
<glyph unicode="&#x2010;" horiz-adv-x="1097" d="M283 528v189h530v-189h-530z" />
<glyph unicode="&#x2011;" horiz-adv-x="1097" d="M283 528v189h530v-189h-530z" />
<glyph unicode="&#x2012;" horiz-adv-x="1097" d="M283 528v189h530v-189h-530z" />
<glyph unicode="&#x2013;" horiz-adv-x="1355" d="M264 588v203h942v-203h-942z" />
<glyph unicode="&#x2014;" horiz-adv-x="1718" d="M315 586v202h1471v-202h-1471z" />
<glyph unicode="&#x2018;" horiz-adv-x="884" d="M252 1038l186 416h197l-113 -416h-270z" />
<glyph unicode="&#x2019;" horiz-adv-x="870" d="M260 1038l115 416h270l-188 -416h-197z" />
<glyph unicode="&#x201a;" horiz-adv-x="874" d="M231 -205l99 453h274l-174 -453h-199z" />
<glyph unicode="&#x201c;" horiz-adv-x="1255" d="M252 1038l186 416h197l-113 -416h-270zM623 1038l188 416h197l-115 -416h-270z" />
<glyph unicode="&#x201d;" horiz-adv-x="1243" d="M260 1038l115 416h270l-188 -416h-197zM633 1038l112 416h271l-187 -416h-196z" />
<glyph unicode="&#x201e;" horiz-adv-x="1236" d="M225 -227l105 475h272l-184 -475h-193zM588 -227l104 475h273l-185 -475h-192z" />
<glyph unicode="&#x2022;" horiz-adv-x="1056" d="M307 395q0 87 63 146t156 59q95 0 159.5 -59.5t64.5 -145.5q0 -84 -64.5 -142t-159.5 -58q-93 0 -156 58t-63 142z" />
<glyph unicode="&#x2026;" horiz-adv-x="1642" d="M266 115q0 53 39.5 88t97.5 35t97 -35t39 -88q0 -51 -39 -86t-97 -35t-97.5 35t-39.5 86zM684 115q0 53 39.5 88t97.5 35q57 0 96 -35.5t39 -87.5q0 -51 -39 -86t-96 -35q-58 0 -97.5 35t-39.5 86zM1104 115q0 52 38.5 87.5t94.5 35.5q60 0 98.5 -35t38.5 -88 q0 -51 -39 -86t-98 -35q-56 0 -94.5 35t-38.5 86z" />
<glyph unicode="&#x202f;" horiz-adv-x="361" />
<glyph unicode="&#x2039;" horiz-adv-x="1024" d="M229 569l389 451l150 -123l-281 -328l281 -327l-150 -125z" />
<glyph unicode="&#x203a;" horiz-adv-x="1024" d="M256 242l283 327l-283 328l150 123l391 -451l-391 -452z" />
<glyph unicode="&#x205f;" horiz-adv-x="452" />
<glyph unicode="&#x20ac;" horiz-adv-x="2002" d="M225 420l129 174h172q-6 55 -6 119v12h-295l129 174h183q52 262 240.5 408.5t467.5 146.5q297 0 512 -188l-125 -168q-77 64 -163 99.5t-199 35.5q-176 0 -301 -86.5t-172 -247.5h721l-144 -174h-602v-12q0 -70 8 -119h551l-143 -174h-346q64 -107 173 -163t249 -56 q216 0 374 135l125 -166q-108 -94 -234 -142t-286 -48q-249 0 -427 114.5t-251 325.5h-340z" />
<glyph unicode="&#x2122;" horiz-adv-x="2142" d="M268 1253v181h660v-181h-221v-632h-218v632h-221zM850 618l180 816h189l153 -443l156 443h188l180 -816h-221l-82 383l-135 -383h-172l-135 383l-82 -383h-219z" />
<glyph unicode="&#x25fc;" horiz-adv-x="1290" d="M0 0v1290h1290v-1290h-1290z" />
</font>
</defs>
</svg>
